HIERARCHY
ROOT Hips
{
  OFFSET -398.681 91.5775 567.273
  CHANNELS 6 Xposition Yposition Zposition Zrotation Xrotation Yrotation
  JOINT Spine
  {
    OFFSET 0 8 0
    CHANNELS 6 Xposition Yposition Zposition Zrotation Xrotation Yrotation
    JOINT Spine1
    {
      OFFSET 4.47768e-05 8 0
      CHANNELS 6 Xposition Yposition Zposition Zrotation Xrotation Yrotation
      JOINT Spine2
      {
        OFFSET 1.37781e-05 8 -1.35371e-05
        CHANNELS 6 Xposition Yposition Zposition Zrotation Xrotation Yrotation
        JOINT Spine3
        {
          OFFSET 0 8 0
          CHANNELS 6 Xposition Yposition Zposition Zrotation Xrotation Yrotation
          JOINT Neck
          {
            OFFSET 4.92325e-05 17 -5.28174e-05
            CHANNELS 6 Xposition Yposition Zposition Zrotation Xrotation Yrotation
            JOINT Head
            {
              OFFSET 4.62475e-05 10.8 -4.59271e-05
              CHANNELS 6 Xposition Yposition Zposition Zrotation Xrotation Yrotation
              End Site
              {
                OFFSET 0 20.25 0
              }
            }
          }
          JOINT LeftShoulder
          {
            OFFSET 5 17 -6.19618e-05
            CHANNELS 6 Xposition Yposition Zposition Zrotation Xrotation Yrotation
            JOINT LeftShoulder2
            {
              OFFSET 6.45 0 0
              CHANNELS 6 Xposition Yposition Zposition Zrotation Xrotation Yrotation
              JOINT LeftArm
              {
                OFFSET 6.45004 5.26443e-05 -0.000272403
                CHANNELS 6 Xposition Yposition Zposition Zrotation Xrotation Yrotation
                JOINT LeftForeArm
                {
                  OFFSET 0 -32.4 -2.00002
                  CHANNELS 6 Xposition Yposition Zposition Zrotation Xrotation Yrotation
                  JOINT LeftHand
                  {
                    OFFSET -6.8921e-05 -25.65 1.99994
                    CHANNELS 6 Xposition Yposition Zposition Zrotation Xrotation Yrotation
                    JOINT LeftHandThumb1
                    {
                      OFFSET -0.50006 -1.50008 2.65012
                      CHANNELS 6 Xposition Yposition Zposition Zrotation Xrotation Yrotation
                      JOINT LeftHandThumb2
                      {
                        OFFSET 7.26145e-05 -3.80006 3.69996
                        CHANNELS 6 Xposition Yposition Zposition Zrotation Xrotation Yrotation
                        JOINT LeftHandThumb3
                        {
                          OFFSET 1.86748e-05 -3.00008 2.69996
                          CHANNELS 6 Xposition Yposition Zposition Zrotation Xrotation Yrotation
                          End Site
                          {
                            OFFSET -9.42259e-05 -2.30008 1.79993
                          }
                        }
                      }
                    }
                    JOINT LeftHandIndex
                    {
                      OFFSET -1.04634e-05 -1.90006 1.60004
                      CHANNELS 6 Xposition Yposition Zposition Zrotation Xrotation Yrotation
                      JOINT LeftHandIndex1
                      {
                        OFFSET -9.44739e-05 -8.29994 1.90004
                        CHANNELS 6 Xposition Yposition Zposition Zrotation Xrotation Yrotation
                        JOINT LeftHandIndex2
                        {
                          OFFSET 0 -4.49997 -6.94458e-05
                          CHANNELS 6 Xposition Yposition Zposition Zrotation Xrotation Yrotation
                          JOINT LeftHandIndex3
                          {
                            OFFSET -9.05003e-05 -3.40009 -0.000118993
                            CHANNELS 6 Xposition Yposition Zposition Zrotation Xrotation Yrotation
                            End Site
                            {
                              OFFSET -0.00095473 -2.59989 0
                            }
                          }
                        }
                      }
                    }
                    JOINT LeftHandMiddle
                    {
                      OFFSET -0.24992 -2.19996 0.39994
                      CHANNELS 6 Xposition Yposition Zposition Zrotation Xrotation Yrotation
                      JOINT LeftHandMiddle1
                      {
                        OFFSET -4.87747e-05 -8.30008 1.00002
                        CHANNELS 6 Xposition Yposition Zposition Zrotation Xrotation Yrotation
                        JOINT LeftHandMiddle2
                        {
                          OFFSET -3.63437e-05 -4.64999 0
                          CHANNELS 6 Xposition Yposition Zposition Zrotation Xrotation Yrotation
                          JOINT LeftHandMiddle3
                          {
                            OFFSET 3.63773e-05 -3.30009 -3.03873e-05
                            CHANNELS 6 Xposition Yposition Zposition Zrotation Xrotation Yrotation
                            End Site
                            {
                              OFFSET 6.82185e-05 -2.69994 3.91656e-05
                            }
                          }
                        }
                      }
                    }
                    JOINT LeftHandRing
                    {
                      OFFSET -0.500046 -2.15006 -0.799981
                      CHANNELS 6 Xposition Yposition Zposition Zrotation Xrotation Yrotation
                      JOINT LeftHandRing1
                      {
                        OFFSET 0 -7.75 -0.199983
                        CHANNELS 6 Xposition Yposition Zposition Zrotation Xrotation Yrotation
                        JOINT LeftHandRing2
                        {
                          OFFSET 2.16852e-05 -3.8 -6.42951e-05
                          CHANNELS 6 Xposition Yposition Zposition Zrotation Xrotation Yrotation
                          JOINT LeftHandRing3
                          {
                            OFFSET -1.37507e-05 -3.40007 -0.000108261
                            CHANNELS 6 Xposition Yposition Zposition Zrotation Xrotation Yrotation
                            End Site
                            {
                              OFFSET 2.47459e-05 -2.59989 2.09675e-05
                            }
                          }
                        }
                      }
                    }
                    JOINT LeftHandPinky
                    {
                      OFFSET -0.750063 -1.74997 -1.85009
                      CHANNELS 6 Xposition Yposition Zposition Zrotation Xrotation Yrotation
                      JOINT LeftHandPinky1
                      {
                        OFFSET -8.95776e-05 -7.14995 -0.999932
                        CHANNELS 6 Xposition Yposition Zposition Zrotation Xrotation Yrotation
                        JOINT LeftHandPinky2
                        {
                          OFFSET 3.65383e-05 -2.99992 3.24824e-05
                          CHANNELS 6 Xposition Yposition Zposition Zrotation Xrotation Yrotation
                          JOINT LeftHandPinky3
                          {
                            OFFSET -6.50905e-05 -2.35001 -1.40532e-05
                            CHANNELS 6 Xposition Yposition Zposition Zrotation Xrotation Yrotation
                            End Site
                            {
                              OFFSET 1.46602e-05 -2.10011 -4.24468e-05
                            }
                          }
                        }
                      }
                    }
                  }
                }
              }
            }
          }
          JOINT RightShoulder
          {
            OFFSET -5.00002 17 -2.47675e-05
            CHANNELS 6 Xposition Yposition Zposition Zrotation Xrotation Yrotation
            JOINT RightShoulder2
            {
              OFFSET -6.45 0 0
              CHANNELS 6 Xposition Yposition Zposition Zrotation Xrotation Yrotation
              JOINT RightArm
              {
                OFFSET -6.44996 1.37337e-05 -1.1489e-05
                CHANNELS 6 Xposition Yposition Zposition Zrotation Xrotation Yrotation
                JOINT RightForeArm
                {
                  OFFSET 3.67176e-05 -32.4 -2.00005
                  CHANNELS 6 Xposition Yposition Zposition Zrotation Xrotation Yrotation
                  JOINT RightHand
                  {
                    OFFSET 6.27346e-05 -25.65 2.00001
                    CHANNELS 6 Xposition Yposition Zposition Zrotation Xrotation Yrotation
                    JOINT RightHandThumb1
                    {
                      OFFSET 0.500069 -1.49999 2.65002
                      CHANNELS 6 Xposition Yposition Zposition Zrotation Xrotation Yrotation
                      JOINT RightHandThumb2
                      {
                        OFFSET 2.3938e-05 -3.8 3.70007
                        CHANNELS 6 Xposition Yposition Zposition Zrotation Xrotation Yrotation
                        JOINT RightHandThumb3
                        {
                          OFFSET -6.50568e-05 -3 2.69998
                          CHANNELS 6 Xposition Yposition Zposition Zrotation Xrotation Yrotation
                          End Site
                          {
                            OFFSET 5.42368e-05 -2.30001 1.79999
                          }
                        }
                      }
                    }
                    JOINT RightHandIndex
                    {
                      OFFSET 5.48583e-05 -1.9 1.60007
                      CHANNELS 6 Xposition Yposition Zposition Zrotation Xrotation Yrotation
                      JOINT RightHandIndex1
                      {
                        OFFSET -4.98322e-05 -8.30001 1.90003
                        CHANNELS 6 Xposition Yposition Zposition Zrotation Xrotation Yrotation
                        JOINT RightHandIndex2
                        {
                          OFFSET 9.60662e-05 -4.50003 0
                          CHANNELS 6 Xposition Yposition Zposition Zrotation Xrotation Yrotation
                          JOINT RightHandIndex3
                          {
                            OFFSET -5.00499e-05 -3.4 -2.77044e-05
                            CHANNELS 6 Xposition Yposition Zposition Zrotation Xrotation Yrotation
                            End Site
                            {
                              OFFSET 5.81481e-05 -2.59997 1.05277e-05
                            }
                          }
                        }
                      }
                    }
                    JOINT RightHandMiddle
                    {
                      OFFSET 0.249973 -2.19997 0.4001
                      CHANNELS 6 Xposition Yposition Zposition Zrotation Xrotation Yrotation
                      JOINT RightHandMiddle1
                      {
                        OFFSET -9.86141e-05 -8.30003 0.999947
                        CHANNELS 6 Xposition Yposition Zposition Zrotation Xrotation Yrotation
                        JOINT RightHandMiddle2
                        {
                          OFFSET 0 -4.65001 0.000101325
                          CHANNELS 6 Xposition Yposition Zposition Zrotation Xrotation Yrotation
                          JOINT RightHandMiddle3
                          {
                            OFFSET -6.07276e-05 -3.29994 -7.99938e-05
                            CHANNELS 6 Xposition Yposition Zposition Zrotation Xrotation Yrotation
                            End Site
                            {
                              OFFSET 6.72227e-05 -2.70007 -3.17542e-05
                            }
                          }
                        }
                      }
                    }
                    JOINT RightHandRing
                    {
                      OFFSET 0.50005 -2.14992 -0.800011
                      CHANNELS 6 Xposition Yposition Zposition Zrotation Xrotation Yrotation
                      JOINT RightHandRing1
                      {
                        OFFSET -3.8411e-05 -7.74999 -0.200116
                        CHANNELS 6 Xposition Yposition Zposition Zrotation Xrotation Yrotation
                        JOINT RightHandRing2
                        {
                          OFFSET -2.52082e-05 -3.78125 8.58867e-05
                          CHANNELS 6 Xposition Yposition Zposition Zrotation Xrotation Yrotation
                          JOINT RightHandRing3
                          {
                            OFFSET -7.75355e-05 -3.39991 -3.83906e-05
                            CHANNELS 6 Xposition Yposition Zposition Zrotation Xrotation Yrotation
                            End Site
                            {
                              OFFSET -2.20921e-05 -2.59994 1.70512e-05
                            }
                          }
                        }
                      }
                    }
                    JOINT RightHandPinky
                    {
                      OFFSET 0.750031 -1.74996 -1.85002
                      CHANNELS 6 Xposition Yposition Zposition Zrotation Xrotation Yrotation
                      JOINT RightHandPinky1
                      {
                        OFFSET 7.06419e-05 -7.14993 -0.999963
                        CHANNELS 6 Xposition Yposition Zposition Zrotation Xrotation Yrotation
                        JOINT RightHandPinky2
                        {
                          OFFSET -1.74991e-05 -2.99995 -9.51855e-05
                          CHANNELS 6 Xposition Yposition Zposition Zrotation Xrotation Yrotation
                          JOINT RightHandPinky3
                          {
                            OFFSET 1.99844e-05 -2.35002 -7.44473e-05
                            CHANNELS 6 Xposition Yposition Zposition Zrotation Xrotation Yrotation
                            End Site
                            {
                              OFFSET 0 -2.09997 8.94911e-05
                            }
                          }
                        }
                      }
                    }
                  }
                }
              }
            }
          }
        }
      }
    }
  }
  JOINT LeftUpLeg
  {
    OFFSET 7.99999 0 -1.11125e-05
    CHANNELS 6 Xposition Yposition Zposition Zrotation Xrotation Yrotation
    JOINT LeftLeg
    {
      OFFSET 4.07102e-05 -45 -0.999962
      CHANNELS 6 Xposition Yposition Zposition Zrotation Xrotation Yrotation
      JOINT LeftFoot
      {
        OFFSET 9.57701e-05 -41 -1.99993
        CHANNELS 6 Xposition Yposition Zposition Zrotation Xrotation Yrotation
        JOINT LeftToeBase
        {
          OFFSET -5.11895e-05 -7.5 12.5
          CHANNELS 6 Xposition Yposition Zposition Zrotation Xrotation Yrotation
          JOINT LeftFootToe
          {
            OFFSET 0 0 4
            CHANNELS 6 Xposition Yposition Zposition Zrotation Xrotation Yrotation
            End Site
            {
              OFFSET 0 0 0
            }
          }
        }
      }
    }
  }
  JOINT RightUpLeg
  {
    OFFSET -7.99999 0 1.11125e-05
    CHANNELS 6 Xposition Yposition Zposition Zrotation Xrotation Yrotation
    JOINT RightLeg
    {
      OFFSET 7.92676e-05 -45 -1.00001
      CHANNELS 6 Xposition Yposition Zposition Zrotation Xrotation Yrotation
      JOINT RightFoot
      {
        OFFSET -4.21337e-05 -41 -2
        CHANNELS 6 Xposition Yposition Zposition Zrotation Xrotation Yrotation
        JOINT RightToeBase
        {
          OFFSET -4.41839e-05 -7.5 12.5
          CHANNELS 6 Xposition Yposition Zposition Zrotation Xrotation Yrotation
          JOINT RightFootToe
          {
            OFFSET 0 0 4
            CHANNELS 6 Xposition Yposition Zposition Zrotation Xrotation Yrotation
            End Site
            {
              OFFSET 0 0 0
            }
          }
        }
      }
    }
  }
}
MOTION
Frames:	3
Frame Time:	0.0111111
-396.923 91.2176 568.132 -1.23278 -5.31984 73.7268 0 8 -2.84217e-14 12.2555 0.893111 -0.595598 0 8 2.84217e-14 0.0224746 1.73631 -0.0115916 0 8 -2.84217e-14 -0.0120161 0.861646 0.0170009 0 8 8.52651e-14 -0.00597607 0.863177 -0.00562821 0 17 0 3.03483 10.7116 5.31238 0 10.8 -5.68434e-14 -4.96009 18.3623 13.1873 5 17 2.84217e-14 5.21322 3.65325 -4.65169 6.45 0 8.52651e-14 -0.180192 -0.0961435 0.732013 6.45 0 0 9.99638 -33.9423 4.54619 0 -32.4 -2 -70.3069 -80.1018 -17.3377 1.13687e-13 -25.65 2 12.9854 5.23239 16.8097 -0.5 -1.5 2.65 7.18544 -10.4016 -14.2471 0 -3.8 3.7 -0.00579009 -0.0510572 -0.0106986 -1.13687e-13 -3 2.7 0.0370095 53.3864 0.0965832 0 -1.9 1.6 -7.85888e-07 5.76596e-06 1.71796e-05 0 -8.3 1.9 -13.7336 25.1175 3.64225 0 -4.5 -5.68434e-14 -1.44339 -0.00115423 -0.013219 0 -3.4 5.68434e-14 -1.25666 0.0156109 -0.0133311 -0.25 -2.2 0.4 -7.85888e-07 5.76596e-06 1.71796e-05 0 -8.3 1 -28.6367 21.7036 7.00734 0 -4.65 0 -0.00224303 -0.00732244 -0.0480436 -5.68434e-14 -3.3 -5.68434e-14 -1.0648e-05 -0.0137941 -0.121959 -0.5 -2.15 -0.8 -7.85888e-07 5.76596e-06 1.71796e-05 0 -7.75 -0.2 -47.3857 16.2133 10.1024 0 -3.8 -5.68434e-14 -0.00555607 -0.0163557 0.0373926 -5.68434e-14 -3.4 5.68434e-14 -0.00425106 -0.0136824 0.0501645 -0.75 -1.75 -1.85 -7.85888e-07 5.76596e-06 1.71796e-05 0 -7.15 -1 -61.2056 14.7707 13.745 5.68434e-14 -3 0 -0.159816 0.00423747 0.00419177 5.68434e-14 -2.35 0 -0.163408 0.00385382 -0.00663975 -5 17 -8.52651e-14 7.12137 5.7598 -1.04589 -6.45 0 -2.84217e-14 -0.747235 -0.192554 -0.230768 -6.45 2.84217e-14 -2.84217e-14 4.75058 -42.3255 28.7404 0 -32.4 -2 153.661 -71.1117 172.838 -1.13687e-13 -25.65 2 -26.6029 -27.227 52.1575 0.5 -1.5 2.65 159.513 22.8105 -111.944 1.13687e-13 -3.8 3.7 0.210368 13.872 0.0344767 1.13687e-13 -3 2.7 -0.477962 41.4 -0.184104 0 -1.9 1.6 -5.54192e-05 2.18203e-05 -2.90853e-05 0 -8.3 1.9 20.4334 4.13392 -0.892297 0 -4.5 5.68434e-14 41.3761 0.00858529 0.0153876 -1.13687e-13 -3.4 0 28.9335 0.0431465 0.0105134 0.25 -2.2 0.4 -5.54192e-05 2.18203e-05 -2.90853e-05 -1.13687e-13 -8.3 1 43.1728 6.06214 -3.64169 0 -4.65 0 19.4674 0.0147774 0.0225131 -1.13687e-13 -3.3 0 15.4776 0.00941904 0.0172119 0.5 -2.15 -0.8 -5.54192e-05 2.18203e-05 -2.90853e-05 0 -7.75 -0.2 65.9067 0.321108 -4.50286 0 -3.8 -5.68434e-14 20.2986 0.00845371 -0.00522319 5.68434e-14 -3.4 -5.68434e-14 16.0526 0.00190063 -0.0218863 0.75 -1.75 -1.85 -5.54192e-05 2.18203e-05 -2.90853e-05 0 -7.15 -1 72.285 2.60088 -8.86198 5.68434e-14 -3 0 72.8749 0.011602 -0.0261878 -5.68434e-14 -2.35 -5.68434e-14 55.3915 0.00838793 -0.00875901 8 0 2.84217e-14 18.1834 -17.9714 24.563 0 -45 -1 -0.345413 36.5977 -8.1154 1.13687e-13 -41 -2 -1.77897 -15.6962 -3.5639 -1.13687e-13 -7.5 12.5 4.23912e-06 1.49276 -9.35169e-06 -1.13687e-13 8.88178e-16 4 7.23974 -10.6096 11.3187 -8 -7.10543e-15 -2.84217e-14 2.89026 5.43049 -25.7719 0 -45 -1 0.322825 11.2537 4.03052 0 -41 -2 3.29417 -14.985 -22.97 0 -7.5 12.5 -7.07024e-07 1.50361e-06 -3.98667e-05 -1.13687e-13 -2.22045e-16 4 -0.954009 4.63842 18.4643 
-396.92 91.2192 568.126 -1.23447 -5.32039 73.7179 1.13687e-13 8 -2.84217e-14 12.2556 0.896792 -0.596759 -1.13687e-13 8 2.84217e-14 0.0233081 1.73609 -0.0124266 -1.13687e-13 8 0 -0.0121346 0.861518 0.0172221 0 8 2.84217e-14 -0.00590331 0.862838 -0.00535032 1.13687e-13 17 -2.84217e-14 3.03053 10.7117 5.29679 -1.13687e-13 10.8 0 -4.96368 18.371 13.15 5 17 0 5.21217 3.65297 -4.64603 6.45 0 5.68434e-14 -0.178263 -0.0979116 0.732282 6.45 2.84217e-14 5.68434e-14 10.0035 -33.9307 4.54469 0 -32.4 -2 -70.996 -80.0494 -17.9201 1.13687e-13 -25.65 2 12.5706 5.26628 16.9931 -0.5 -1.5 2.65 8.01947 -10.6938 -15.0522 -1.13687e-13 -3.8 3.7 -0.00583534 -0.0510578 -0.0104628 -1.13687e-13 -3 2.7 0.0213351 55.0667 0.0386669 0 -1.9 1.6 -7.85888e-07 5.76596e-06 1.71796e-05 0 -8.3 1.9 -14.0522 25.3871 3.76082 0 -4.5 0 -0.941647 -0.00262515 -0.00960479 0 -3.4 0 -0.776721 0.0158669 -0.00875718 -0.25 -2.2 0.4 -7.85888e-07 5.76596e-06 1.71796e-05 1.13687e-13 -8.3 1 -29.2399 21.6563 7.13546 0 -4.65 0 -0.00224198 -0.00643826 -0.0483167 5.68434e-14 -3.3 5.68434e-14 -1.14015e-05 -0.013742 -0.121669 -0.5 -2.15 -0.8 -7.85888e-07 5.76596e-06 1.71796e-05 0 -7.75 -0.2 -47.9512 15.9941 10.1381 5.68434e-14 -3.8 5.68434e-14 -0.00544245 -0.0164337 0.0375728 -5.68434e-14 -3.4 -5.68434e-14 -0.00413976 -0.0138502 0.0502681 -0.75 -1.75 -1.85 -7.85888e-07 5.76596e-06 1.71796e-05 0 -7.15 -1 -61.7169 14.4812 13.734 0 -3 5.68434e-14 -0.0447042 0.00413928 0.00377122 0 -2.35 0 -0.0492193 0.00365319 -0.00803971 -5 17 0 7.10875 5.75798 -1.05823 -6.45 -2.84217e-14 0 -0.745366 -0.193447 -0.23632 -6.45 2.84217e-14 -2.84217e-14 4.82149 -42.3479 28.8415 0 -32.4 -2 153.817 -71.1332 173.062 0 -25.65 2 -26.8268 -27.4828 52.2482 0.5 -1.5 2.65 159.77 22.6685 -111.703 1.13687e-13 -3.8 3.7 0.210368 13.872 0.0344767 0 -3 2.7 -0.478109 41.4 -0.185194 1.13687e-13 -1.9 1.6 -5.54192e-05 2.18203e-05 -2.90853e-05 0 -8.3 1.9 20.7994 4.0142 -0.891072 1.13687e-13 -4.5 0 42.0656 0.0066475 0.0155721 0 -3.4 -5.68434e-14 29.3581 0.0434027 0.0108118 0.25 -2.2 0.4 -5.54192e-05 2.18203e-05 -2.90853e-05 -1.13687e-13 -8.3 1 43.2857 5.88818 -3.59462 0 -4.65 5.68434e-14 20.7117 0.0108583 0.0224978 -5.68434e-14 -3.3 5.68434e-14 16.3044 0.00685052 0.0172827 0.5 -2.15 -0.8 -5.54192e-05 2.18203e-05 -2.90853e-05 -1.13687e-13 -7.75 -0.2 65.9898 0.233956 -4.47721 0 -3.8 0 21.2199 0.00841324 -0.00384214 0 -3.4 -5.68434e-14 16.6495 0.00229505 -0.0216148 0.75 -1.75 -1.85 -5.54192e-05 2.18203e-05 -2.90853e-05 0 -7.15 -1 72.447 2.48542 -8.8256 0 -3 -1.13687e-13 73.4016 0.0119828 -0.0260463 -5.68434e-14 -2.35 -5.68434e-14 56.0647 0.00861578 -0.00855747 8 -7.10543e-15 0 18.1808 -17.9696 24.5624 -1.13687e-13 -45 -1 -0.345844 36.5936 -8.1109 1.13687e-13 -41 -2 -1.77733 -15.699 -3.56234 0 -7.5 12.5 4.2388e-06 1.49082 -9.35169e-06 -1.13687e-13 4.44089e-16 4 7.23897 -10.6065 11.3185 -8 7.10543e-15 2.84217e-14 2.88827 5.4337 -25.7742 1.13687e-13 -45 -1 0.322978 11.2412 4.03021 0 -41 -2 3.29976 -14.9744 -22.9673 -1.13687e-13 -7.5 12.5 -7.07024e-07 1.50361e-06 -3.98667e-05 0 0 4 -0.953983 4.63835 18.4593 
-396.917 91.2208 568.12 -1.23621 -5.32099 73.7094 0 8 2.84217e-14 12.2557 0.900742 -0.597975 0 8 2.84217e-14 0.024115 1.73583 -0.0132111 -1.13687e-13 8 2.84217e-14 -0.0122491 0.861382 0.0174365 0 8 2.84217e-14 -0.00582979 0.8625 -0.00512457 0 17 0 3.02661 10.7118 5.28146 0 10.8 0 -4.96654 18.3798 13.1133 5 17 0 5.20982 3.65248 -4.64244 6.45 0 5.68434e-14 -0.176299 -0.0997179 0.732541 6.45 5.68434e-14 2.84217e-14 10.0146 -33.9178 4.54402 0 -32.4 -2 -71.7334 -80.0105 -18.5619 0 -25.65 2 12.2542 5.2969 17.1859 -0.5 -1.5 2.65 8.52734 -10.8743 -15.5424 -1.13687e-13 -3.8 3.7 -0.0058515 -0.0510582 -0.0101912 0 -3 2.7 0.00911562 56.2139 0.001357 -1.13687e-13 -1.9 1.6 -7.85888e-07 5.76596e-06 1.71796e-05 0 -8.3 1.9 -14.5251 25.7446 3.93551 1.13687e-13 -4.5 0 -0.616663 -0.00341689 -0.00496905 0 -3.4 -5.68434e-14 -0.455133 0.016122 -0.00361687 -0.25 -2.2 0.4 -7.85888e-07 5.76596e-06 1.71796e-05 0 -8.3 1 -30.091 21.6582 7.34069 0 -4.65 -5.68434e-14 -0.00224098 -0.00559142 -0.0485744 -5.68434e-14 -3.3 0 -1.21584e-05 -0.0136889 -0.121353 -0.5 -2.15 -0.8 -7.85888e-07 5.76596e-06 1.71796e-05 0 -7.75 -0.2 -48.6991 15.7773 10.2185 0 -3.8 0 -0.00532714 -0.0164932 0.0377441 5.68434e-14 -3.4 0 -0.00402597 -0.0140012 0.0503597 -0.75 -1.75 -1.85 -7.85888e-07 5.76596e-06 1.71796e-05 -1.13687e-13 -7.15 -1 -62.3905 14.1654 13.7616 0 -3 0 -0.0134039 0.00426027 0.00338017 2.84217e-14 -2.35 0 -0.0133515 0.00364383 -0.00884969 -5 17 0 7.0977 5.75668 -1.06977 -6.45 2.84217e-14 2.84217e-14 -0.742895 -0.194348 -0.24284 -6.45 2.84217e-14 -2.84217e-14 4.88849 -42.3729 28.9444 0 -32.4 -2 153.971 -71.1549 173.285 1.13687e-13 -25.65 2 -27.0426 -27.7003 52.3253 0.5 -1.5 2.65 159.995 22.5443 -111.473 0 -3.8 3.7 0.210368 13.872 0.0344767 0 -3 2.7 -0.478256 41.4 -0.186285 0 -1.9 1.6 -5.54192e-05 2.18203e-05 -2.90853e-05 0 -8.3 1.9 21.1221 3.90166 -0.888091 1.13687e-13 -4.5 5.68434e-14 42.6888 0.00542862 0.0157308 0 -3.4 -5.68434e-14 29.7444 0.0436269 0.0110966 0.25 -2.2 0.4 -5.54192e-05 2.18203e-05 -2.90853e-05 0 -8.3 1 43.3934 5.72388 -3.55121 0 -4.65 5.68434e-14 21.8377 0.00797287 0.022463 0 -3.3 -5.68434e-14 17.0398 0.00477461 0.0173491 0.5 -2.15 -0.8 -5.54192e-05 2.18203e-05 -2.90853e-05 0 -7.75 -0.2 66.0603 0.157034 -4.4573 0 -3.8 5.68434e-14 22.0768 0.00835937 -0.0029483 2.84217e-14 -3.4 0 17.1984 0.0027145 -0.0213408 0.75 -1.75 -1.85 -5.54192e-05 2.18203e-05 -2.90853e-05 0 -7.15 -1 72.5805 2.37672 -8.78634 0 -3 0 73.8791 0.0123563 -0.0258908 0 -2.35 -1.13687e-13 56.69 0.00883665 -0.00832913 8 0 0 18.1786 -17.9676 24.5623 1.13687e-13 -45 -1 -0.346284 36.5898 -8.10656 0 -41 -2 -1.77562 -15.7016 -3.56152 1.13687e-13 -7.5 12.5 4.23848e-06 1.48887 -9.35168e-06 0 0 4 7.23821 -10.6036 11.3184 -8 -7.10543e-15 0 2.88654 5.437 -25.7761 0 -45 -1 0.323128 11.2287 4.02991 0 -41 -2 3.30455 -14.9641 -22.9668 0 -7.5 12.5 -7.07024e-07 1.50361e-06 -3.98667e-05 -1.13687e-13 1.11022e-16 4 -0.953312 4.63855 18.4465 
